Coordinates
version=1
nRows=10
nColumns=22
inDegrees=yes

Units are S.I. units (second, meters, Newtons, ...)
If the header above contains a line with 'inDegrees', this indicates whether rotational values are in degrees (yes) or radians (no).

endheader
time	pelvis_tilt	pelvis_list	pelvis_rotation	pelvis_tx	pelvis_ty	pelvis_tz	hip_flexion_r	hip_adduction_r	hip_rotation_r	knee_angle_r	ankle_angle_r	subtalar_angle_r	hip_flexion_l	hip_adduction_l	hip_rotation_l	knee_angle_l	ankle_angle_l	subtalar_angle_l	lumbar_extension	lumbar_bending	lumbar_rotation
      0.01000000	      1.99466665	     -0.84479382	      3.68088977	     -0.69426806	      1.08550906	      1.08828421	     -2.74629956	      1.87832115	     -4.11788266	    -10.45631901	     12.19215801	     -2.64642316	     -1.25189636	     -1.31817501	     -1.84987973	    -12.86277378	     13.14796784	     -1.75135810	     -2.61373323	     -0.71182332	     -5.09916168
      0.02000000	      1.99524509	     -0.84744128	      3.66837417	     -0.69417843	      1.08550250	      1.08828475	     -2.75117242	      1.87963943	     -4.11824331	    -10.45614263	     12.19220474	     -2.64678553	     -1.25587039	     -1.31925327	     -1.84794433	    -12.86939000	     13.14879853	     -1.75140387	     -2.60633397	     -0.71135373	     -5.10350265
      0.03000000	      1.99682576	     -0.86170134	      3.65261957	     -0.69405655	      1.08549177	      1.08827878	     -2.77328803	      1.89481737	     -4.08918171	    -10.42677184	     12.19378934	     -2.65024887	     -1.25879681	     -1.33373382	     -1.86939686	    -12.88233079	     13.17416247	     -1.75383900	     -2.59570263	     -0.69258530	     -5.12518993
      0.04000000	      1.99808425	     -0.86450912	      3.63669713	     -0.69393997	      1.08548515	      1.08827311	     -2.77992535	      1.89541357	     -4.08982646	    -10.42756516	     12.19308564	     -2.65050091	     -1.26391771	     -1.33398018	     -1.86677565	    -12.89229648	     13.17488329	     -1.75387696	     -2.58665583	     -0.69240983	     -5.12925707
      0.05000000	      2.01112211	     -0.88641247	      3.60537339	     -0.69381395	      1.08548832	      1.08828625	     -2.81458183	      1.91912148	     -4.03860482	    -10.39499208	     12.17843229	     -2.65504699	     -1.27432064	     -1.35743536	     -1.90592837	    -12.91849939	     13.21238073	     -1.75566677	     -2.59099747	     -0.66595219	     -5.12985941
      0.06000000	      2.01221696	     -0.88887674	      3.58835330	     -0.69367882	      1.08547944	      1.08826962	     -2.82273197	      1.91845330	     -4.03941195	    -10.39523691	     12.17864889	     -2.65520945	     -1.28078957	     -1.35645026	     -1.90463563	    -12.92760757	     13.21276862	     -1.75560682	     -2.57901308	     -0.66475083	     -5.13618023
      0.07000000	      2.01554434	     -0.89678548	      3.56409709	     -0.69352037	      1.08547275	      1.08825323	     -2.85361389	      1.92521647	     -4.00322290	    -10.35735942	     12.18175163	     -2.65515415	     -1.28971161	     -1.36322622	     -1.94299094	    -12.93813160	     13.23473064	     -1.75721628	     -2.56794903	     -0.65263316	     -5.16297728
      0.08000000	      2.01711978	     -0.90062588	      3.54445744	     -0.69339487	      1.08546557	      1.08823874	     -2.86146319	      1.92576235	     -4.00290183	    -10.35745295	     12.18110288	     -2.65518081	     -1.29542212	     -1.36340099	     -1.94037061	    -12.94933210	     13.23543911	     -1.75718856	     -2.55901631	     -0.65236707	     -5.16766721
      0.09000000	      2.02803909	     -0.91738255	      3.51284654	     -0.69325518	      1.08546920	      1.08823989	     -2.90181045	      1.94363762	     -3.93957365	    -10.31404344	     12.17494106	     -2.65319590	     -1.30587375	     -1.38124620	     -1.99021094	    -12.97176024	     13.26707194	     -1.75962352	     -2.56040160	     -0.63237994	     -5.18483284
      0.10000000	      2.02872114	     -0.92198188	      3.48956069	     -0.69314906	      1.08546157	      1.08822692	     -2.90783662	      1.94420927	     -3.94067730	    -10.31234601	     12.17402087	     -2.65315657	     -1.31090134	     -1.38157053	     -1.98780647	    -12.98087597	     13.26757216	     -1.75947038	     -2.55461140	     -0.63168159	     -5.18951896
